<?xml version="1.0" standalone="no"?>
<!DOCTYPE svg PUBLIC "-//W3C//DTD SVG 20010904//EN"
 "http://www.w3.org/TR/2001/REC-SVG-20010904/DTD/svg10.dtd">
<svg version="1.0" xmlns="http://www.w3.org/2000/svg"
 width="1536.000000pt" height="1536.000000pt" viewBox="0 0 1536.000000 1536.000000"
 preserveAspectRatio="xMidYMid meet">
<metadata>
Created by potrace 1.14, written by Peter Selinger 2001-2017
</metadata>
<g transform="translate(0.000000,1536.000000) scale(0.100000,-0.100000)"
fill="#000000" stroke="none">
<path d="M7398 13435 c-1 -1 -55 -6 -118 -9 -63 -4 -126 -8 -140 -10 -14 -3
-54 -7 -89 -11 -36 -3 -79 -8 -95 -10 -17 -2 -51 -7 -76 -10 -244 -33 -637
-117 -797 -170 -23 -8 -52 -17 -65 -19 -78 -16 -471 -159 -633 -231 -128 -57
-154 -70 -289 -137 -446 -223 -888 -524 -1266 -863 -82 -73 -395 -389 -461
-464 -35 -41 -69 -79 -74 -85 -28 -30 -147 -179 -217 -274 -328 -434 -602
-932 -791 -1437 -74 -198 -185 -552 -201 -645 -2 -14 -9 -43 -14 -65 -12 -44
-43 -188 -58 -275 -4 -19 -8 -44 -10 -55 -2 -11 -7 -40 -10 -65 -3 -25 -8 -48
-10 -51 -2 -3 -6 -33 -9 -66 -3 -33 -8 -71 -10 -84 -3 -13 -7 -53 -10 -89 -3
-36 -8 -74 -10 -85 -11 -57 -20 -281 -20 -540 0 -302 7 -444 30 -640 2 -22 7
-62 10 -90 3 -27 8 -67 11 -87 3 -21 6 -40 5 -43 -1 -14 51 -142 75 -183 42
-73 159 -182 234 -218 106 -52 165 -66 285 -69 122 -4 215 14 313 61 30 14
1041 683 2246 1487 1205 803 2218 1473 2251 1487 159 72 351 83 518 28 55 -17
183 -81 197 -97 3 -3 30 -22 60 -42 136 -88 175 -114 180 -119 3 -3 41 -29 85
-58 44 -28 87 -56 95 -62 8 -5 39 -25 68 -45 28 -19 76 -51 105 -70 28 -20 59
-40 67 -45 139 -91 177 -117 188 -127 7 -7 17 -13 22 -13 5 0 15 -6 22 -13 7
-7 31 -24 53 -37 22 -13 42 -26 45 -30 3 -3 23 -17 45 -31 101 -65 160 -104
165 -109 3 -3 41 -29 85 -58 44 -28 87 -56 95 -62 8 -5 51 -33 95 -62 44 -29
82 -56 83 -60 2 -5 10 -8 17 -8 7 0 15 -4 17 -8 2 -4 37 -30 78 -56 98 -63
173 -113 185 -123 6 -5 28 -20 50 -33 22 -13 45 -29 51 -35 6 -5 27 -19 47
-30 20 -11 37 -23 37 -27 0 -5 6 -8 14 -8 8 0 16 -3 18 -8 2 -4 28 -23 58 -42
30 -19 57 -37 60 -40 3 -3 23 -17 45 -30 22 -13 46 -30 53 -37 7 -7 17 -13 22
-13 5 0 15 -6 22 -13 7 -7 31 -24 53 -37 22 -13 45 -29 51 -35 6 -5 27 -19 47
-30 20 -11 37 -23 37 -27 0 -5 6 -8 14 -8 8 0 16 -4 18 -8 2 -4 37 -30 78 -56
98 -63 173 -113 185 -123 6 -5 28 -20 50 -33 22 -13 42 -26 45 -30 3 -3 23
-17 45 -31 101 -65 160 -104 165 -109 3 -3 41 -29 85 -58 44 -28 87 -56 95
-62 8 -5 44 -29 80 -52 36 -24 67 -45 70 -48 3 -4 23 -17 45 -30 22 -13 46
-30 53 -37 7 -7 17 -13 22 -13 5 0 15 -6 22 -13 7 -7 31 -24 53 -37 22 -13 42
-27 45 -30 3 -3 30 -21 60 -40 30 -19 57 -38 58 -42 2 -5 10 -8 17 -8 7 0 15
-3 17 -7 2 -5 29 -25 61 -45 31 -21 83 -55 115 -75 31 -21 59 -40 62 -43 3 -3
41 -29 85 -57 44 -29 85 -57 92 -63 7 -5 47 -28 90 -50 275 -141 602 -89 792
127 106 119 144 234 167 493 3 36 7 75 9 88 26 156 26 946 0 1082 -3 13 -7 53
-10 89 -2 36 -7 75 -9 87 -2 11 -7 46 -10 76 -21 200 -108 596 -189 869 -56
187 -167 489 -236 642 -10 23 -29 65 -41 92 -27 61 -150 307 -177 355 -11 19
-34 60 -51 91 -17 31 -58 100 -92 153 -33 54 -60 101 -60 106 0 4 -3 10 -7 12
-5 2 -35 44 -67 93 -84 128 -258 361 -358 480 -117 139 -183 211 -343 371
-158 159 -292 283 -409 379 -27 22 -54 45 -60 50 -66 63 -537 392 -647 452
-19 10 -45 26 -59 35 -151 98 -603 315 -870 416 -293 111 -735 237 -940 267
-14 2 -50 8 -80 14 -30 6 -71 13 -90 16 -19 3 -46 7 -60 10 -25 5 -75 11 -155
20 -22 3 -56 7 -75 10 -19 2 -71 7 -115 11 -44 3 -91 8 -105 11 -30 5 -697 13
-702 8z"/>
<path d="M7591 8008 c-81 -9 -181 -41 -249 -79 -113 -63 -4159 -2769 -4203
-2811 -134 -128 -210 -296 -212 -473 -3 -203 35 -285 278 -595 11 -14 54 -59
96 -101 118 -121 249 -178 419 -184 136 -5 235 16 352 76 22 11 763 503 1647
1092 883 588 1633 1083 1666 1097 138 63 311 80 456 46 69 -17 225 -85 252
-110 7 -6 48 -35 92 -64 44 -29 87 -57 95 -62 8 -6 51 -34 95 -63 44 -28 82
-55 83 -59 2 -5 10 -8 18 -8 8 0 14 -4 14 -9 0 -5 12 -15 28 -22 28 -15 143
-90 152 -99 3 -4 23 -17 45 -30 22 -13 42 -26 45 -30 3 -3 50 -34 105 -70 55
-36 102 -68 105 -72 3 -4 17 -13 30 -20 41 -22 175 -112 178 -120 2 -5 10 -8
17 -8 7 0 15 -3 17 -8 2 -4 28 -23 58 -42 30 -19 61 -40 68 -47 7 -7 17 -13
22 -13 5 0 15 -6 22 -13 7 -7 38 -28 68 -47 30 -19 57 -38 58 -42 2 -5 10 -8
17 -8 7 0 15 -3 17 -7 4 -10 142 -102 181 -122 15 -7 27 -17 27 -22 0 -5 6 -9
14 -9 8 0 16 -3 18 -8 2 -4 28 -23 58 -42 30 -19 57 -37 60 -40 5 -5 63 -43
165 -109 22 -14 42 -28 45 -31 3 -4 23 -17 45 -30 22 -13 42 -26 45 -30 3 -3
57 -39 120 -80 63 -41 117 -77 120 -80 3 -4 23 -17 45 -30 22 -13 45 -29 51
-35 6 -5 27 -19 47 -30 20 -11 37 -23 37 -27 0 -5 6 -8 14 -8 8 0 16 -4 18 -8
2 -4 37 -30 78 -56 98 -63 173 -113 185 -123 6 -5 28 -20 50 -33 22 -13 42
-27 45 -30 3 -3 28 -20 55 -38 28 -17 68 -44 90 -59 149 -105 282 -154 425
-158 155 -5 276 28 390 106 85 58 201 188 341 385 147 206 166 444 53 669 -55
109 -160 227 -241 272 -18 10 -33 21 -33 25 0 5 -6 8 -14 8 -8 0 -16 3 -18 8
-3 8 -137 98 -178 120 -13 7 -27 16 -30 20 -3 4 -50 36 -105 72 -55 36 -102
67 -105 70 -3 4 -23 17 -45 30 -22 13 -46 30 -53 37 -7 7 -17 13 -22 13 -5 0
-15 6 -22 13 -7 7 -31 24 -53 37 -22 13 -42 26 -45 30 -3 3 -57 39 -120 80
-63 41 -117 77 -120 80 -3 4 -23 17 -45 30 -22 13 -42 26 -45 30 -3 3 -23 17
-45 31 -159 104 -341 225 -345 230 -3 3 -23 16 -45 29 -22 13 -42 26 -45 30
-9 9 -124 84 -152 99 -16 7 -28 17 -28 22 0 5 -7 9 -15 9 -8 0 -15 3 -15 8 0
4 -17 16 -37 27 -20 11 -41 25 -47 30 -6 6 -36 26 -66 45 -30 19 -56 38 -58
42 -2 5 -10 8 -17 8 -7 0 -15 3 -17 8 -3 8 -137 98 -178 120 -13 7 -27 16 -30
20 -3 4 -50 36 -105 72 -55 36 -102 67 -105 70 -3 4 -23 17 -45 30 -22 13 -46
30 -53 37 -7 7 -17 13 -22 13 -5 0 -15 6 -22 13 -7 7 -31 24 -53 37 -22 13
-42 26 -45 30 -3 3 -57 39 -120 80 -63 41 -117 77 -120 80 -3 4 -23 17 -45 30
-22 13 -42 26 -45 30 -3 3 -23 17 -45 31 -159 104 -341 225 -345 230 -3 3 -23
16 -45 29 -22 13 -42 26 -45 30 -9 9 -124 84 -152 99 -16 7 -28 17 -28 22 0 5
-7 9 -15 9 -8 0 -15 3 -15 8 0 4 -17 16 -37 27 -20 11 -41 25 -47 30 -6 6 -36
26 -66 45 -30 19 -56 38 -58 42 -2 5 -10 8 -17 8 -7 0 -15 3 -17 8 -4 10 -97
72 -107 72 -5 0 -11 4 -13 8 -6 15 -117 73 -185 96 -104 36 -210 48 -322 34z"/>
<path d="M7591 4648 c-81 -9 -181 -41 -250 -80 -104 -58 -1816 -1206 -1856
-1244 -99 -96 -170 -219 -201 -351 -14 -61 -13 -219 2 -279 53 -203 180 -337
394 -417 268 -100 710 -224 900 -252 14 -2 48 -8 75 -14 28 -5 70 -12 95 -16
25 -3 52 -8 60 -10 8 -2 40 -7 70 -10 30 -4 69 -8 85 -10 17 -2 55 -7 85 -10
30 -3 71 -8 90 -10 223 -26 923 -26 1080 -1 14 3 52 7 85 10 65 6 130 14 185
22 19 3 46 7 60 9 205 29 589 114 727 160 23 8 52 16 65 19 23 5 139 41 168
53 8 4 17 7 20 8 85 23 243 89 299 125 249 161 331 483 195 766 -61 130 -140
214 -290 314 -49 33 -109 73 -134 90 -25 17 -61 41 -80 53 -19 13 -105 69
-190 126 -85 57 -180 120 -210 140 -30 20 -56 39 -58 44 -2 4 -10 7 -17 7 -7
0 -15 3 -17 8 -1 4 -28 23 -58 42 -30 19 -57 37 -60 40 -3 3 -23 17 -45 30
-22 13 -46 30 -53 37 -7 7 -17 13 -22 13 -5 0 -15 6 -22 13 -7 7 -31 24 -53
37 -22 13 -42 26 -45 30 -3 3 -34 24 -70 48 -36 23 -72 47 -80 52 -8 6 -51 34
-95 63 -44 28 -81 55 -83 59 -2 5 -10 8 -18 8 -8 0 -14 4 -14 8 0 5 -12 15
-27 23 -16 8 -58 35 -96 61 -37 27 -72 48 -77 48 -6 0 -10 4 -10 8 0 5 -42 29
-92 55 -140 68 -273 93 -417 75z"/>
</g>
</svg>
