<?xml version="1.0" encoding="UTF-8"?>
<svg id="Logo_Only" data-name="Logo Only" xmlns="http://www.w3.org/2000/svg" xmlns:xlink="http://www.w3.org/1999/xlink" viewBox="0 0 2160 2160">
  <defs>
    <style>
      .cls-1, .cls-2, .cls-3, .cls-4 {
        stroke-width: 0px;
      }

      .cls-1, .cls-5 {
        fill: url(#linear-gradient);
      }

      .cls-2 {
        fill: none;
      }

      .cls-6 {
        clip-path: url(#clippath-1);
      }

      .cls-3 {
        fill: url(#linear-gradient-2);
      }

      .cls-4 {
        fill: url(#linear-gradient-3);
      }

      .cls-7 {
        clip-path: url(#clippath);
      }
    </style>
    <linearGradient id="linear-gradient" x1="1080" y1="450" x2="1080" y2="1710" gradientUnits="userSpaceOnUse">
      <stop offset="0" stop-color="#7eb8fd"/>
      <stop offset="1" stop-color="#02479d"/>
    </linearGradient>
    <clipPath id="clippath">
      <path class="cls-1" d="M1079.68,754.56l-680.98,393.17-11.48-20.09c-16.86-29.51-16.86-65.75,0-95.26l305.14-534c17.09-29.91,48.9-48.37,83.35-48.37h608.58c34.45,0,66.26,18.46,83.35,48.37l305.14,534c16.86,29.51,16.86,65.75,0,95.26l-11.48,20.09-680.98-393.17-.32.55-.32-.55ZM1080,1169.11l.32-.55,503.1,290.46,88.58-155.01-591.99-341.79-591.99,341.79,88.58,155.01,503.1-290.46.32.55ZM665.89,1615.31l26.47,46.32c17.09,29.91,48.9,48.37,83.35,48.37h608.58c34.45,0,66.26-18.46,83.35-48.37l26.47-46.32-414.11-239.09-414.11,239.09Z"/>
    </clipPath>
    <linearGradient id="linear-gradient-2" x1="1080" y1="360" x2="1080" y2="1800" xlink:href="#linear-gradient"/>
    <clipPath id="clippath-1">
      <path class="cls-2" d="M1079.68,1169.56l-580.94,335.4c-35.22-48.09-64.62-100.72-87.15-156.84l668.41-385.9,668.41,385.9c-22.53,56.12-51.93,108.74-87.15,156.84l-580.94-335.4-.32.55-.32-.55ZM626.36,1639.13c123.81,100.58,281.68,160.87,453.64,160.87s329.82-60.29,453.64-160.87l-453.64-261.91-453.64,261.91ZM1080,755.11l.32-.55,714.46,412.49c3.44-28.54,5.22-57.59,5.22-87.05,0-397.65-322.35-720-720-720s-720,322.35-720,720c0,29.47,1.78,58.51,5.22,87.05l714.46-412.49.32.55Z"/>
    </clipPath>
    <linearGradient id="linear-gradient-3" x1="1080" y1="360" x2="1080" y2="1800" gradientUnits="userSpaceOnUse">
      <stop offset="0" stop-color="#7eb8fd"/>
      <stop offset=".96" stop-color="#02479d"/>
    </linearGradient>
  </defs>
  <g id="Hex">
    <g>
      <path class="cls-5" d="M1079.68,754.56l-680.98,393.17-11.48-20.09c-16.86-29.51-16.86-65.75,0-95.26l305.14-534c17.09-29.91,48.9-48.37,83.35-48.37h608.58c34.45,0,66.26,18.46,83.35,48.37l305.14,534c16.86,29.51,16.86,65.75,0,95.26l-11.48,20.09-680.98-393.17-.32.55-.32-.55ZM1080,1169.11l.32-.55,503.1,290.46,88.58-155.01-591.99-341.79-591.99,341.79,88.58,155.01,503.1-290.46.32.55ZM665.89,1615.31l26.47,46.32c17.09,29.91,48.9,48.37,83.35,48.37h608.58c34.45,0,66.26-18.46,83.35-48.37l26.47-46.32-414.11-239.09-414.11,239.09Z"/>
      <g class="cls-7">
        <rect class="cls-3" x="360" y="360" width="1440" height="1440"/>
      </g>
    </g>
  </g>
  <g id="Circle">
    <g class="cls-6">
      <rect class="cls-4" x="360" y="360" width="1440" height="1440"/>
    </g>
  </g>
</svg>