<svg width="1280" height="1280" viewBox="0 0 1280 1280" fill="none" xmlns="http://www.w3.org/2000/svg">
<path d="M504.673 307V624.817L692.421 437.069L870.627 905.213L999.756 681.554C1014.76 655.564 1014.76 623.543 999.756 597.554L856.254 349C841.249 323.01 813.518 307 783.508 307L504.673 307Z" fill="#01BAEF"/>
<path d="M409.058 374.458L586.778 841.326L774.081 654.023V972.107H496.503C466.492 972.107 438.762 956.097 423.756 930.107L280.254 681.554C265.249 655.564 265.249 623.543 280.254 597.554L409.058 374.458Z" fill="#01BAEF"/>
<path d="M846.769 943.374C844.278 946.225 841.607 948.893 838.78 951.363L846.769 943.374Z" fill="#01BAEF"/>
</svg>
