<svg width="384" height="384" viewBox="0 0 384 384" fill="none" xmlns="http://www.w3.org/2000/svg">
<path d="M384 192C384 208.51 381.916 224.533 377.997 239.821C376.675 244.978 370.648 247.099 366.218 244.145L196.438 130.958C193.75 129.167 190.25 129.167 187.562 130.958L17.782 244.145C13.3516 247.099 7.32496 244.978 6.00273 239.821C2.0838 224.533 0 208.51 0 192C0 85.9613 85.9613 0 192 0C298.039 0 384 85.9613 384 192Z" fill="white"/>
<path d="M187.562 178.958C190.25 177.167 193.75 177.167 196.438 178.958L352.566 283.044C356.065 285.377 357.176 290.031 354.947 293.598C347.929 304.83 339.782 315.284 330.664 324.802C328.051 327.529 323.858 327.905 320.715 325.81L196.438 242.958C193.75 241.167 190.25 241.167 187.562 242.958L63.2846 325.81C60.1418 327.905 55.9485 327.529 53.3356 324.802C44.2183 315.284 36.0711 304.83 29.0531 293.598C26.8244 290.031 27.9349 285.377 31.4345 283.044L187.562 178.958Z" fill="white"/>
<path d="M101.365 348.424C96.5194 351.654 96.655 358.793 101.793 361.533C128.687 375.872 159.394 384 192 384C224.606 384 255.313 375.872 282.207 361.533C287.345 358.793 287.481 351.654 282.635 348.424L196.438 290.958C193.75 289.167 190.25 289.167 187.562 290.958L101.365 348.424Z" fill="white"/>
</svg>
