<?xml version="1.0" encoding="UTF-8" standalone="no"?>
<!DOCTYPE svg PUBLIC "-//W3C//DTD SVG 1.1//EN" "http://www.w3.org/Graphics/SVG/1.1/DTD/svg11.dtd">
<svg width="100%" height="100%" viewBox="0 0 1024 922" version="1.1" xmlns="http://www.w3.org/2000/svg" xmlns:xlink="http://www.w3.org/1999/xlink" xml:space="preserve" xmlns:serif="http://www.serif.com/" style="fill-rule:evenodd;clip-rule:evenodd;stroke-linejoin:round;stroke-miterlimit:2;">
    <rect id="Logo-Only-No-Padding" serif:id="Logo Only No Padding" x="0" y="-51.414" width="1024" height="1024" style="fill:none;"/>
    <clipPath id="_clip1">
        <rect x="0" y="-51.414" width="1024" height="1024"/>
    </clipPath>
    <g clip-path="url(#_clip1)">
        <path id="OG-Curves" serif:id="OG Curves" d="M338.201,770.933c0,-0 -65.27,113.038 -82.579,143.015c-2.581,4.47 -7.351,7.224 -12.513,7.224c-17.819,-0 -62.149,-0 -113.068,-0c-46.471,-0 -89.409,-24.795 -112.635,-65.041c-23.225,-40.246 -23.207,-89.826 0.048,-130.054c109.005,-188.564 273.216,-472.631 382.177,-661.12c23.244,-40.208 66.171,-64.968 112.619,-64.957c46.448,0.011 89.363,24.793 112.587,65.013c108.847,188.508 272.872,472.574 381.741,661.119c23.229,40.231 23.229,89.796 -0,130.026c-23.23,40.231 -66.16,65.014 -112.619,65.014l-113.889,-0c-5.162,-0 -9.932,-2.754 -12.513,-7.224c-17.309,-29.977 -82.58,-143.015 -82.58,-143.015l148.362,-0c5.162,-0 9.932,-2.754 12.513,-7.224c2.581,-4.47 2.581,-9.977 0,-14.447c-54.106,-93.705 -267.643,-463.519 -321.75,-557.223c-2.581,-4.47 -7.351,-7.224 -12.513,-7.224c-5.162,0 -9.932,2.754 -12.513,7.224c-54.107,93.704 -267.643,463.518 -321.75,557.223c-2.581,4.47 -2.581,9.977 0,14.447c2.581,4.47 7.351,7.224 12.514,7.224c48.016,-0 148.361,-0 148.361,-0Zm0,-0c0,-0 121.074,-209.682 160.875,-278.612c2.581,-4.47 7.351,-7.223 12.513,-7.223c5.162,-0 9.932,2.753 12.513,7.223c39.802,68.93 160.875,278.612 160.875,278.612l-346.776,-0Z" style="fill:#1f75fe;"/>
    </g>
</svg>
