<?xml version="1.0" encoding="UTF-8"?>
<svg id="Logo_Only" data-name="Logo Only" xmlns="http://www.w3.org/2000/svg" xmlns:xlink="http://www.w3.org/1999/xlink" viewBox="0 0 1440 1440">
  <defs>
    <style>
      .cls-1, .cls-2 {
        fill: #6bf178;
      }

      .cls-3 {
        clip-path: url(#clippath);
      }

      .cls-2 {
        stroke-width: 0px;
      }
    </style>
    <clipPath id="clippath">
      <path class="cls-2" d="M719.68,809.56l-580.94,335.4c-35.22-48.09-64.62-100.72-87.15-156.84l668.41-385.9,668.41,385.9c-22.53,56.12-51.93,108.74-87.15,156.84l-580.94-335.4-.32.55-.32-.55ZM266.36,1279.13c123.81,100.58,281.68,160.87,453.64,160.87s329.82-60.29,453.64-160.87l-453.64-261.91-453.64,261.91ZM720,395.11l.32-.55,714.46,412.49c3.44-28.54,5.22-57.59,5.22-87.05C1440,322.35,1117.65,0,720,0S0,322.35,0,720c0,29.47,1.78,58.51,5.22,87.05l714.46-412.49.32.55Z"/>
    </clipPath>
  </defs>
  <g id="Circle">
    <g>
      <path class="cls-1" d="M719.68,809.56l-580.94,335.4c-35.22-48.09-64.62-100.72-87.15-156.84l668.41-385.9,668.41,385.9c-22.53,56.12-51.93,108.74-87.15,156.84l-580.94-335.4-.32.55-.32-.55ZM266.36,1279.13c123.81,100.58,281.68,160.87,453.64,160.87s329.82-60.29,453.64-160.87l-453.64-261.91-453.64,261.91ZM720,395.11l.32-.55,714.46,412.49c3.44-28.54,5.22-57.59,5.22-87.05C1440,322.35,1117.65,0,720,0S0,322.35,0,720c0,29.47,1.78,58.51,5.22,87.05l714.46-412.49.32.55Z"/>
      <g class="cls-3">
        <rect class="cls-2" width="1440" height="1440"/>
      </g>
    </g>
  </g>
</svg>