<?xml version="1.0" encoding="UTF-8" standalone="no"?>
<!DOCTYPE svg PUBLIC "-//W3C//DTD SVG 1.1//EN" "http://www.w3.org/Graphics/SVG/1.1/DTD/svg11.dtd">
<svg width="100%" height="100%" viewBox="0 0 854 697" version="1.1" xmlns="http://www.w3.org/2000/svg" xmlns:xlink="http://www.w3.org/1999/xlink" xml:space="preserve" xmlns:serif="http://www.serif.com/" style="fill-rule:evenodd;clip-rule:evenodd;stroke-linejoin:round;stroke-miterlimit:2;">
    <g transform="matrix(1,0,0,1,-106.007,-168.086)">
        <g id="Logo-Only" serif:id="Logo Only" transform="matrix(0.948148,0,0,0.948148,21,4.5)">
            <rect x="0" y="0" width="1080" height="1080" style="fill:none;"/>
            <g transform="matrix(1.04896,0,0,1.03848,-26.4375,172.532)">
                <g transform="matrix(1.67077,0.837821,-0.839806,1.67473,-109.57,-933.876)">
                    <path d="M611.425,463.028C616.508,460.492 622.492,460.492 627.575,463.028C659.909,479.157 780.145,539.133 818.887,558.458C821.181,559.602 822.63,561.941 822.63,564.5C822.63,567.059 821.181,569.398 818.887,570.542C780.145,589.867 659.909,649.843 627.575,665.972C622.492,668.508 616.508,668.508 611.425,665.972C579.091,649.843 458.855,589.867 420.113,570.542C417.819,569.398 416.37,567.059 416.37,564.5C416.37,561.941 417.819,559.602 420.113,558.458C458.855,539.133 579.091,479.157 611.425,463.028Z" style="fill:rgb(93,18,210);"/>
                </g>
                <g transform="matrix(1.67077,0.837821,-0.839806,1.67473,-20.97,-1110.56)">
                    <path d="M611.425,463.028C616.508,460.492 622.492,460.492 627.575,463.028C659.909,479.157 780.145,539.133 818.887,558.458C821.181,559.602 822.63,561.941 822.63,564.5C822.63,567.059 821.181,569.398 818.887,570.542C780.145,589.867 659.909,649.843 627.575,665.972C622.492,668.508 616.508,668.508 611.425,665.972C579.091,649.843 458.855,589.867 420.113,570.542C417.819,569.398 416.37,567.059 416.37,564.5C416.37,561.941 417.819,559.602 420.113,558.458C458.855,539.133 579.091,479.157 611.425,463.028Z" style="fill:rgb(185,49,252);"/>
                </g>
                <g transform="matrix(1.67077,0.837821,-0.839806,1.67473,67.6295,-1287.24)">
                    <path d="M611.425,463.028C616.508,460.492 622.492,460.492 627.575,463.028C659.909,479.157 780.145,539.133 818.887,558.458C821.181,559.602 822.63,561.941 822.63,564.5C822.63,567.059 821.181,569.398 818.887,570.542C780.145,589.867 659.909,649.843 627.575,665.972C622.492,668.508 616.508,668.508 611.425,665.972C579.091,649.843 458.855,589.867 420.113,570.542C417.819,569.398 416.37,567.059 416.37,564.5C416.37,561.941 417.819,559.602 420.113,558.458C458.855,539.133 579.091,479.157 611.425,463.028Z" style="fill:rgb(255,106,194);"/>
                </g>
            </g>
        </g>
    </g>
</svg>
