<svg width="384" height="384" viewBox="0 0 384 384" fill="none" xmlns="http://www.w3.org/2000/svg">
<path d="M384 192C384 201.15 383.36 210.151 382.122 218.959C379.899 234.778 361.806 241.204 348.515 232.343L205.313 136.875C197.251 131.501 186.749 131.501 178.687 136.875L35.4849 232.343C22.1935 241.204 4.1007 234.778 1.87785 218.959C0.640062 210.151 0 201.15 0 192C0 85.9613 85.9613 0 192 0C298.039 0 384 85.9613 384 192Z" fill="white"/>
<path d="M178.687 184.875C186.749 179.501 197.251 179.501 205.313 184.875L340.134 274.756C350.633 281.755 354.042 295.799 346.546 305.949C344.225 309.091 341.811 312.161 339.307 315.152C332.034 323.842 319.364 324.909 309.935 318.623L205.313 248.875C197.251 243.501 186.749 243.501 178.687 248.875L74.0648 318.623C64.6364 324.909 51.9659 323.842 44.6932 315.152C42.1893 312.161 39.7749 309.091 37.454 305.949C29.958 295.799 33.3672 281.755 43.8658 274.756L178.687 184.875Z" fill="white"/>
<path d="M122.072 334.619C107.536 344.309 108.1 365.635 124.453 371.781C145.465 379.68 168.228 384 192 384C215.772 384 238.535 379.68 259.547 371.781C275.9 365.635 276.464 344.309 261.928 334.619L205.313 296.875C197.251 291.501 186.749 291.501 178.687 296.875L122.072 334.619Z" fill="white"/>
</svg>
